# File created by Blade
# Date/Time:  Thu Jan 22 16:16:06 2015
# Frame Rate: 120.000 fps
#------------------------------------------------------
:FULLY-SPECIFIED
:DEGREES
1114
root 2.176783 34.684821 -5.644199 8.917871 7.473839 5.245339
RightUpLeg -4.944366 -15.248615 -26.831914
RightLeg -4.498456 -0.000000 0.000000
RightFoot -5.351152 -18.109355 32.705133
RightToeBase 9.651011 -0.000000 -0.000000
LeftUpLeg -21.059966 -4.573680 16.526953
LeftLeg 9.142510 -0.000000 -0.000000
LeftFoot -3.287420 13.613515 -32.166070
LeftToeBase 11.918193 -0.000000 -0.000000
Spine 45.659019 -0.364037 -11.793799
RightShoulder 14.627814 -3.960131 -31.228322
RightArm 68.377608 -18.145109 39.702671
RightForeArm -11.804208 -0.000000 43.977269
RightHand 11.136191 -0.000000 -14.372474
RightHandThumb1 -24.326973 -0.000000 -32.862282
LeftShoulder 0.095858 23.658048 21.955209
LeftArm 81.258184 6.626577 -44.087097
LeftForeArm 51.121392 -0.000000 34.092068
LeftHand -13.691316 -0.000000 9.161211
LeftHandThumb1 -26.253704 0.000000 33.147579
Head -26.041640 2.736934 -2.405327
1115
root 2.145142 34.717453 -5.593470 8.615732 6.971381 4.940097
RightUpLeg -4.951666 -14.292221 -26.524287
RightLeg -4.367781 -0.000000 0.000000
RightFoot -5.779741 -16.502174 33.054907
RightToeBase 9.380943 -0.000000 -0.000000
LeftUpLeg -20.539502 -4.629933 16.863433
LeftLeg 9.288194 -0.000000 -0.000000
LeftFoot -3.868437 13.285003 -31.620667
LeftToeBase 12.034326 -0.000000 -0.000000
Spine 45.275115 -0.448370 -11.343924
RightShoulder 14.630824 -4.150145 -31.082971
RightArm 67.702132 -18.279126 40.012338
RightForeArm -11.669915 -0.000000 44.473203
RightHand 11.093287 -0.000000 -14.301322
RightHandThumb1 -24.326973 -0.000000 -32.862282
LeftShoulder -0.227091 24.011120 21.525207
LeftArm 81.176580 6.691749 -44.190777
LeftForeArm 50.960147 -0.000000 34.792829
LeftHand -13.758625 0.000000 8.890671
LeftHandThumb1 -26.253704 0.000000 33.147579
Head -26.236803 3.036979 -2.606357
1116
root 2.110534 34.752090 -5.541773 8.349279 6.432714 4.600605
RightUpLeg -5.074867 -13.394162 -26.156958
RightLeg -4.102239 -0.000000 0.000000
RightFoot -6.234329 -14.875371 33.131651
RightToeBase 8.749802 -0.000000 -0.000000
LeftUpLeg -20.063397 -4.634156 17.215804
LeftLeg 9.487093 -0.000000 -0.000000
LeftFoot -4.410413 12.781520 -30.846710
LeftToeBase 11.824131 -0.000000 -0.000000
Spine 44.873838 -0.487709 -10.863942
RightShoulder 14.623800 -4.229417 -30.852593
RightArm 66.916710 -18.493595 40.295154
RightForeArm -11.621932 -0.000000 44.992144
RightHand 11.151971 -0.000000 -14.287650
RightHandThumb1 -24.326973 -0.000000 -32.862282
LeftShoulder -0.581538 24.369204 21.112735
LeftArm 81.095949 6.785239 -44.403416
LeftForeArm 50.898856 -0.000000 35.499190
LeftHand -13.864367 -0.000000 8.689129
LeftHandThumb1 -26.253704 0.000000 33.147579
Head -26.451034 3.311796 -2.782356
1117
root 2.076565 34.790277 -5.487939 8.061890 5.839590 4.275364
RightUpLeg -5.194019 -12.407411 -25.824507
RightLeg -3.808161 -0.000000 0.000000
RightFoot -6.772799 -13.331359 33.326085
RightToeBase 8.270102 -0.000000 -0.000000
LeftUpLeg -19.523161 -4.672103 17.558110
LeftLeg 9.641717 -0.000000 -0.000000
LeftFoot -5.008340 12.197284 -30.436392
LeftToeBase 11.789717 -0.000000 -0.000000
Spine 44.511703 -0.490913 -10.417641
RightShoulder 14.634516 -4.442392 -30.643583
RightArm 66.205966 -18.564292 40.573892
RightForeArm -11.532203 -0.000000 45.517703
RightHand 11.157079 -0.000000 -14.175963
RightHandThumb1 -24.326973 -0.000000 -32.862282
LeftShoulder -0.946044 24.752261 20.705688
LeftArm 80.968138 6.851601 -44.660813
LeftForeArm 50.836910 0.000000 36.203597
LeftHand -13.993682 -0.000000 8.523899
LeftHandThumb1 -26.253704 0.000000 33.147579
Head -26.649501 3.580367 -2.947772
1118
root 2.040754 34.828830 -5.432103 7.795334 5.252106 3.934520
RightUpLeg -5.333319 -11.469630 -25.469474
RightLeg -3.490254 -0.000000 0.000000
RightFoot -7.458654 -11.706412 33.757930
RightToeBase 8.291650 -0.000000 -0.000000
LeftUpLeg -19.000959 -4.804598 17.954401
LeftLeg 9.792065 -0.000000 -0.000000
LeftFoot -5.691659 11.524672 -30.809789
LeftToeBase 11.826498 -0.000000 -0.000000
Spine 44.146600 -0.516111 -9.949007
RightShoulder 14.596180 -4.888109 -30.441293
RightArm 65.698756 -18.448879 40.785487
RightForeArm -11.354322 0.000000 45.985393
RightHand 11.202379 -0.000000 -13.863738
RightHandThumb1 -24.326973 -0.000000 -32.862282
LeftShoulder -1.305223 25.129262 20.315149
LeftArm 80.757241 6.913871 -45.008840
LeftForeArm 50.654192 -0.000000 36.987514
LeftHand -13.973476 -0.000000 8.307996
LeftHandThumb1 -26.253704 0.000000 33.147579
Head -26.861504 3.948223 -3.108722
